<?xml version="1.0" encoding="UTF-8" standalone="no" ?>
<!DOCTYPE svg PUBLIC "-//W3C//DTD SVG 1.1//EN" "http://www.w3.org/Graphics/SVG/1.1/DTD/svg11.dtd">
<svg xmlns="http://www.w3.org/2000/svg" xmlns:xlink="http://www.w3.org/1999/xlink" version="1.1" width="128" height="128" viewBox="0 0 128 128" xml:space="preserve">
<desc>Created with Fabric.js 4.6.0</desc>
<defs>
</defs>
<g transform="matrix(1.06 0 0 1.06 64 64)" id="C9RAbijrzg7Hy1DezVq6U"  >
<path style="stroke: none; stroke-width: 1; stroke-dasharray: none; stroke-linecap: butt; stroke-dashoffset: 0; stroke-linejoin: miter; stroke-miterlimit: 4; fill: none; fill-rule: nonzero; opacity: 1;" vector-effect="non-scaling-stroke"  transform=" translate(-64, -64)" d="M 4.24 4.24 L 123.77 4.24 L 123.77 123.77 L 4.24 123.77 z" stroke-linecap="round" />
</g>
<g transform="matrix(1.06 0 0 1.06 64 64)" id="ReFU6Y8emHqeyM_QSteEc"  >
<path style="stroke: none; stroke-width: 1; stroke-dasharray: none; stroke-linecap: butt; stroke-dashoffset: 0; stroke-linejoin: miter; stroke-miterlimit: 4; fill: rgb(255,255,255); fill-rule: nonzero; opacity: 1;" vector-effect="non-scaling-stroke"  transform=" translate(-63.99, -64.01)" d="M 109.01 28.64 L 71.28 6.24 C 69.03 4.91 66.51 4.24 64 4.24 C 61.489999999999995 4.24 58.97 4.91 56.72 6.25 L 18.979999999999997 28.65 C 14.479999999999997 31.32 11.699999999999996 36.26 11.699999999999996 41.61 L 11.699999999999996 86.41 C 11.699999999999996 91.75999999999999 14.469999999999995 96.69999999999999 18.979999999999997 99.37 L 56.709999999999994 121.77000000000001 C 58.959999999999994 123.11000000000001 61.46999999999999 123.77000000000001 63.989999999999995 123.77000000000001 C 66.5 123.77000000000001 69.02 123.10000000000001 71.27 121.77000000000001 L 109.00999999999999 99.37 C 113.50999999999999 96.7 116.28999999999999 91.75 116.28999999999999 86.41 L 116.28999999999999 41.6 C 116.28999999999999 36.260000000000005 113.52 31.310000000000002 109.00999999999999 28.64 z M 79.79 98.59 L 79.85000000000001 101.81 C 79.85000000000001 102.2 79.60000000000001 102.64 79.30000000000001 102.8 L 77.39000000000001 103.89999999999999 C 77.09000000000002 104.05 76.83000000000001 103.86999999999999 76.83000000000001 103.47999999999999 L 76.80000000000001 100.30999999999999 C 75.17000000000002 100.99 73.51 101.14999999999999 72.46000000000001 100.72999999999999 C 72.26 100.64999999999999 72.17 100.35999999999999 72.25000000000001 100.02 L 72.94000000000001 97.11 C 73.00000000000001 96.88 73.12000000000002 96.65 73.28000000000002 96.51 C 73.34000000000002 96.45 73.40000000000002 96.41000000000001 73.46000000000002 96.38000000000001 C 73.57000000000002 96.32000000000001 73.68000000000002 96.31000000000002 73.77000000000002 96.35000000000001 C 74.91000000000003 96.73 76.36000000000003 96.55000000000001 77.76000000000002 95.85000000000001 C 79.54000000000002 94.95 80.73000000000002 93.13000000000001 80.71000000000002 91.33000000000001 C 80.69000000000003 89.69000000000001 79.81000000000002 89.02000000000001 77.66000000000003 89.00000000000001 C 74.92000000000003 89.01000000000002 72.36000000000003 88.47000000000001 72.32000000000002 84.43 C 72.29000000000002 81.11000000000001 74.01000000000002 77.65 76.75000000000003 75.47 L 76.72000000000003 72.22 C 76.72000000000003 71.82 76.96000000000002 71.38 77.27000000000002 71.22 L 79.12000000000002 70.03999999999999 C 79.42000000000002 69.88999999999999 79.68000000000002 70.08 79.68000000000002 70.47 L 79.71000000000002 73.72 C 81.07000000000002 73.17999999999999 82.25000000000003 73.03 83.32000000000002 73.28 C 83.55000000000003 73.34 83.66000000000003 73.66 83.56000000000002 74.03 L 82.84000000000002 76.91 C 82.78000000000002 77.13 82.66000000000001 77.35 82.51000000000002 77.49 C 82.45423722890806 77.54615303935324 82.3901513001187 77.59337425004014 82.32000000000002 77.63 C 82.22000000000003 77.67999999999999 82.13000000000002 77.69 82.04000000000002 77.67999999999999 C 81.55000000000003 77.57 80.39000000000001 77.32 78.56000000000002 78.24 C 76.64000000000001 79.21 75.97000000000001 80.88 75.98000000000002 82.11999999999999 C 76.00000000000001 83.6 76.75000000000001 84.05 79.37000000000002 84.08999999999999 C 82.86000000000001 84.14999999999999 84.36000000000001 85.66999999999999 84.40000000000002 89.17999999999999 C 84.45000000000002 92.61999999999999 82.61000000000001 96.33 79.79000000000002 98.58999999999999 z M 106.13000000000001 38.09 L 70.43 60.14 C 65.98 62.74 62.7 65.66 62.690000000000005 71.03 L 62.690000000000005 115.02000000000001 C 62.690000000000005 118.23 63.99 120.31000000000002 65.98 120.92000000000002 C 65.33 121.03000000000002 64.66000000000001 121.11000000000001 64 121.11000000000001 C 61.91 121.11000000000001 59.85 120.54000000000002 58.04 119.47000000000001 L 20.310000000000002 97.07000000000002 C 16.62 94.88000000000002 14.330000000000002 90.79000000000002 14.330000000000002 86.40000000000002 L 14.330000000000002 41.6 C 14.330000000000002 37.21 16.62 33.120000000000005 20.310000000000002 30.93 L 58.050000000000004 8.530000000000001 C 59.86000000000001 7.460000000000001 61.92 6.8900000000000015 64.01 6.8900000000000015 C 66.10000000000001 6.8900000000000015 68.16000000000001 7.460000000000002 69.97 8.530000000000001 L 107.71000000000001 30.93 C 110.82000000000001 32.78 112.92 35.97 113.51 39.56 C 112.24000000000001 36.89 109.42 36.17 106.13000000000001 38.09 z" stroke-linecap="round" />
</g>
<g transform="matrix(1.06 0 0 1.06 96.22 97.06)" id="48PK5MSA1F6QoPT1sMBIt"  >
<path style="stroke: none; stroke-width: 1; stroke-dasharray: none; stroke-linecap: butt; stroke-dashoffset: 0; stroke-linejoin: miter; stroke-miterlimit: 4; fill: rgb(79,168,71); fill-rule: nonzero; opacity: 1;" vector-effect="non-scaling-stroke"  transform=" translate(-94.43, -95.22)" d="M 99.12 90.73 L 89.72 96.35000000000001 C 89.47 96.50000000000001 89.28999999999999 96.66000000000001 89.28999999999999 96.96000000000001 L 89.28999999999999 99.42 C 89.28999999999999 99.72 89.49 99.85000000000001 89.74 99.7 L 99.28 93.9 C 99.53 93.75 99.57000000000001 93.48 99.57000000000001 93.18 L 99.57000000000001 91.01 C 99.57000000000001 90.71000000000001 99.37 90.59 99.12 90.73 z" stroke-linecap="round" />
</g>
</svg>